<svg width="26" height="26" viewBox="0 0 26 26" fill="none" xmlns="http://www.w3.org/2000/svg">
<g id="Search icon">
<g clip-path="url(#clip0_242_55)">
<path id="Vector" d="M10 0.187988C8.7114 0.187857 7.43538 0.441555 6.24481 0.934595C5.05425 1.42764 3.97247 2.15036 3.06123 3.0615C2.15 3.97264 1.42716 5.05436 0.934001 6.24487C0.44084 7.43538 0.187012 8.71137 0.187012 9.99999C0.18688 11.2887 0.440612 12.5648 0.933714 13.7554C1.42682 14.946 2.14963 16.0279 3.06088 16.9391C3.97213 17.8504 5.05396 18.5732 6.24458 19.0663C7.43521 19.5594 8.71131 19.8131 10 19.813C12.29 19.813 14.393 19.002 16.063 17.688L16.938 18.563C16.7583 18.9121 16.6947 19.3094 16.7564 19.6972C16.8181 20.0849 17.0019 20.4429 17.281 20.719L21.875 25.344C22.588 26.058 23.755 26.058 24.469 25.344L25.344 24.469C25.6866 24.1243 25.8789 23.658 25.8789 23.172C25.8789 22.686 25.6866 22.2197 25.344 21.875L20.719 17.281C20.441 17.0037 20.0809 16.8236 19.6922 16.7674C19.3036 16.7112 18.9072 16.7819 18.562 16.969L17.687 16.094C18.8324 14.6487 19.5472 12.9098 19.7496 11.0768C19.952 9.24383 19.6337 7.39091 18.8313 5.73052C18.0288 4.07012 16.7747 2.66947 15.2128 1.68917C13.6508 0.708859 11.8441 0.188582 10 0.187988ZM10 1.99999C12.1217 1.99999 14.1566 2.84284 15.6569 4.34313C17.1572 5.84343 18 7.87826 18 9.99999C18 12.1217 17.1572 14.1566 15.6569 15.6568C14.1566 17.1571 12.1217 18 10 18C7.87828 18 5.84345 17.1571 4.34316 15.6568C2.84287 14.1566 2.00001 12.1217 2.00001 9.99999C2.00001 7.87826 2.84287 5.84343 4.34316 4.34313C5.84345 2.84284 7.87828 1.99999 10 1.99999ZM4.93701 7.46899C4.40365 8.3329 4.1224 9.3287 4.12501 10.344C4.12383 11.0625 4.26448 11.7742 4.5389 12.4383C4.81332 13.1024 5.21612 13.7057 5.7242 14.2138C6.23228 14.7219 6.83565 15.1247 7.49971 15.3991C8.16378 15.6735 8.87548 15.8142 9.59401 15.813C10.7236 15.8107 11.8252 15.4616 12.75 14.813C12.5007 14.8361 12.2504 14.8461 12 14.843C11.0719 14.8454 10.1525 14.6643 9.29454 14.3103C8.43661 13.9562 7.6571 13.4362 7.00078 12.7799C6.34446 12.1237 5.82427 11.3443 5.4701 10.4864C5.11594 9.6285 4.93477 8.7091 4.93701 7.78099C4.93701 7.67699 4.93201 7.57299 4.93701 7.46899Z" fill="#FBFCFB"/>
</g>
</g>
<defs>
<clipPath id="clip0_242_55">
<path d="M0 13C0 5.8203 5.8203 0 13 0H26V26H13C5.8203 26 0 20.1797 0 13Z" fill="white"/>
</clipPath>
</defs>
</svg>
