<svg width="75" height="40" viewBox="0 0 75 40" fill="none" xmlns="http://www.w3.org/2000/svg">
<g id="Group 43">
<rect id="Rectangle 20" width="75" height="40" rx="20" fill="#FBFCFB"/>
<circle id="Ellipse 1" cx="20" cy="20" r="15" fill="#1B1107"/>
<g id="Group">
<path id="Vector" d="M17.5 10.3467C17.622 10.4949 17.6968 10.6764 17.7146 10.8676C17.7324 11.0587 17.6925 11.2509 17.6 11.4192C16.8773 12.746 16.4999 14.2333 16.5025 15.7442C16.5025 20.7704 20.6 24.8404 25.65 24.8404C26.3088 24.8404 26.95 24.7717 27.5662 24.6404C27.7552 24.5995 27.9519 24.6151 28.132 24.6854C28.3121 24.7556 28.4675 24.8774 28.5788 25.0354C28.6962 25.1997 28.7561 25.3982 28.7491 25.6001C28.7421 25.802 28.6686 25.9959 28.54 26.1517C27.5596 27.3559 26.3228 28.3263 24.9198 28.9919C23.5168 29.6575 21.9829 30.0016 20.43 29.9992C14.6675 29.9992 10 25.3567 10 19.6367C10 15.3317 12.6425 11.6392 16.405 10.0742C16.5924 9.99494 16.8005 9.97868 16.9979 10.0278C17.1954 10.077 17.3716 10.1888 17.5 10.3467Z" fill="#FBFCFB"/>
<path id="Vector_2" d="M23.4925 13.9343C23.5104 13.8802 23.545 13.8331 23.5912 13.7997C23.6374 13.7663 23.693 13.7484 23.75 13.7484C23.807 13.7484 23.8626 13.7663 23.9088 13.7997C23.9551 13.8331 23.9896 13.8802 24.0075 13.9343L24.4913 15.3868C24.7075 16.0343 25.215 16.5418 25.8625 16.7581L27.315 17.2418C27.3691 17.2598 27.4162 17.2943 27.4496 17.3405C27.483 17.3868 27.501 17.4423 27.501 17.4993C27.501 17.5564 27.483 17.6119 27.4496 17.6582C27.4162 17.7044 27.3691 17.7389 27.315 17.7568L25.8625 18.2406C25.5432 18.347 25.253 18.5263 25.015 18.7643C24.777 19.0023 24.5977 19.2925 24.4913 19.6118L24.0075 21.0643C23.9896 21.1185 23.9551 21.1656 23.9088 21.199C23.8626 21.2324 23.807 21.2503 23.75 21.2503C23.693 21.2503 23.6374 21.2324 23.5912 21.199C23.545 21.1656 23.5104 21.1185 23.4925 21.0643L23.0088 19.6118C22.9024 19.2925 22.7231 19.0023 22.485 18.7643C22.247 18.5263 21.9569 18.347 21.6375 18.2406L20.185 17.7568C20.1309 17.7389 20.0838 17.7044 20.0504 17.6582C20.017 17.6119 19.999 17.5564 19.999 17.4993C19.999 17.4423 20.017 17.3868 20.0504 17.3405C20.0838 17.2943 20.1309 17.2598 20.185 17.2418L21.6375 16.7581C21.9569 16.6517 22.247 16.4724 22.485 16.2344C22.7231 15.9964 22.9024 15.7062 23.0088 15.3868L23.4925 13.9343ZM27.3288 10.1231C27.3411 10.0875 27.3642 10.0566 27.3949 10.0348C27.4256 10.013 27.4623 10.0012 27.5 10.0012C27.5377 10.0012 27.5744 10.013 27.6051 10.0348C27.6358 10.0566 27.6589 10.0875 27.6713 10.1231L27.9938 11.0906C28.1375 11.5231 28.4763 11.8618 28.9088 12.0056L29.8763 12.3281C29.9118 12.3404 29.9427 12.3636 29.9646 12.3943C29.9864 12.4249 29.9981 12.4617 29.9981 12.4993C29.9981 12.537 29.9864 12.5738 29.9646 12.6044C29.9427 12.6351 29.9118 12.6583 29.8763 12.6706L28.9088 12.9931C28.6956 13.064 28.5019 13.1836 28.3431 13.3425C28.1843 13.5013 28.0647 13.695 27.9938 13.9081L27.6713 14.8756C27.6589 14.9112 27.6358 14.9421 27.6051 14.9639C27.5744 14.9857 27.5377 14.9975 27.5 14.9975C27.4623 14.9975 27.4256 14.9857 27.3949 14.9639C27.3642 14.9421 27.3411 14.9112 27.3288 14.8756L27.0063 13.9081C26.9354 13.695 26.8157 13.5013 26.6569 13.3425C26.4981 13.1836 26.3044 13.064 26.0913 12.9931L25.1238 12.6706C25.0882 12.6583 25.0573 12.6351 25.0355 12.6044C25.0136 12.5738 25.0019 12.537 25.0019 12.4993C25.0019 12.4617 25.0136 12.4249 25.0355 12.3943C25.0573 12.3636 25.0882 12.3404 25.1238 12.3281L26.0913 12.0056C26.5238 11.8618 26.8625 11.5231 27.0063 11.0906L27.3288 10.1243V10.1231Z" fill="#FBFCFB"/>
</g>
</g>
</svg>
